<svg xmlns="http://www.w3.org/2000/svg" width="12" height="16" viewBox="0 0 12 16">
    <g fill="#BDBDBD" fill-rule="nonzero">
        <path d="M11.4 1.846H9.6v-.615A.608.608 0 0 0 9 .615H7.039A1.195 1.195 0 0 0 6 0c-.443 0-.831.248-1.039.615H3c-.331 0-.6.276-.6.616v.615H.6c-.331 0-.6.276-.6.616v12.923c0 .34.269.615.6.615h10.8c.331 0 .6-.276.6-.615V2.462a.608.608 0 0 0-.6-.616zm-7.8 0h1.8c.331 0 .6-.276.6-.615 0 .34.269.615.6.615h1.8v1.23H3.6v-1.23zm7.2 12.923H1.2V3.077h1.2v.615c0 .34.269.616.6.616h6c.331 0 .6-.276.6-.616v-.615h1.2v11.692z"/>
        <path d="M8.4 7H3.6c-.331 0-.6.224-.6.5s.269.5.6.5h4.8c.331 0 .6-.224.6-.5S8.731 7 8.4 7zM8.4 9H3.6c-.331 0-.6.224-.6.5s.269.5.6.5h4.8c.331 0 .6-.224.6-.5S8.731 9 8.4 9zM8.4 11H3.6c-.331 0-.6.224-.6.5s.269.5.6.5h4.8c.331 0 .6-.224.6-.5s-.269-.5-.6-.5z"/>
    </g>
</svg>
