<svg xmlns="http://www.w3.org/2000/svg" xmlns:xlink="http://www.w3.org/1999/xlink" width="257" height="330" viewBox="0 0 257 330">
    <defs>
        <rect id="a" width="160" height="230" x="22" rx="6"/>
        <path id="c" d="M8 20h122l32 32v192a6 6 0 0 1-6 6H8a6 6 0 0 1-6-6V26a6 6 0 0 1 6-6z"/>
        <filter id="b" width="211.2%" height="177.4%" x="-55.6%" y="-24.8%" filterUnits="objectBoundingBox">
            <feMorphology in="SourceAlpha" operator="dilate" radius="1" result="shadowSpreadOuter1"/>
            <feOffset dy="32" in="shadowSpreadOuter1" result="shadowOffsetOuter1"/>
            <feGaussianBlur in="shadowOffsetOuter1" result="shadowBlurOuter1" stdDeviation="24"/>
            <feComposite in="shadowBlurOuter1" in2="SourceAlpha" operator="out" result="shadowBlurOuter1"/>
            <feColorMatrix in="shadowBlurOuter1" values="0 0 0 0 0.82745098 0 0 0 0 0.921568627 0 0 0 0 0.909803922 0 0 0 0.72 0"/>
        </filter>
    </defs>
    <g fill="none" fill-rule="evenodd" transform="translate(46)">
        <path fill="#D1ECE9" fill-opacity=".54" d="M87.5 324c47.22 0 94.5-2.686 94.5-6s-47.28-6-94.5-6S0 314.686 0 318s40.28 6 87.5 6z"/>
        <use fill="#D3EEEB" xlink:href="#a"/>
        <rect width="158" height="228" x="23" y="1" stroke="#1DB6AF" stroke-width="2" rx="6"/>
        <g stroke-dasharray="9,11" stroke-linecap="round">
            <use fill="#000" filter="url(#b)" xlink:href="#c"/>
            <use fill="#FFF" stroke="#1DB6AF" stroke-width="2" xlink:href="#c"/>
        </g>
        <path fill="#1DB6AF" d="M27.375 203.344c0-.698.159-1.227.477-1.586.317-.36.773-.54 1.367-.54.604 0 1.075.18 1.414.54.338.36.508.888.508 1.586 0 .677-.172 1.198-.516 1.562-.344.365-.812.547-1.406.547-.532 0-.972-.164-1.32-.492-.35-.328-.524-.867-.524-1.617zM52.859 205h-3.015l-6.14-10.047L37.453 205H34.64l7.593-11.938-7.078-10.906h2.938l5.672 9.047 5.718-9.047h2.828l-7.078 10.813L52.86 205zm4.266 0v-22.844h2.656v20.438H69.86V205H57.125zm30.5-6.078c0 2.01-.73 3.578-2.188 4.703-1.458 1.125-3.437 1.688-5.937 1.688-2.708 0-4.792-.35-6.25-1.047v-2.563c.938.396 1.958.708 3.063.938 1.104.229 2.197.343 3.28.343 1.772 0 3.105-.336 4-1.007.897-.672 1.344-1.607 1.344-2.805 0-.792-.158-1.44-.476-1.945-.318-.506-.849-.972-1.594-1.399-.745-.427-1.877-.911-3.398-1.453-2.125-.76-3.643-1.661-4.555-2.703-.911-1.042-1.367-2.401-1.367-4.078 0-1.76.661-3.162 1.984-4.203 1.323-1.042 3.073-1.563 5.25-1.563 2.271 0 4.36.417 6.266 1.25l-.828 2.313c-1.886-.792-3.719-1.188-5.5-1.188-1.407 0-2.505.302-3.297.906-.792.605-1.188 1.443-1.188 2.516 0 .792.146 1.44.438 1.945.292.506.784.97 1.476 1.39.693.423 1.753.889 3.18 1.4 2.396.854 4.044 1.77 4.945 2.75.901.979 1.352 2.25 1.352 3.812z"/>
        <g fill-rule="nonzero">
            <path fill="#D3EDEA" d="M133.862 78.406H28.678A3.677 3.677 0 0 0 25 82.082v71.836a3.677 3.677 0 0 0 3.678 3.676h105.185a3.677 3.677 0 0 0 3.678-3.676V82.083a3.68 3.68 0 0 0-3.679-3.677zM80.166 99.86v17.037H54.79V99.86h25.375zM54.79 97.65V80.614h25.375V97.65H54.79zm25.375 21.453v17.039H54.79v-17.04h25.375zm0 19.244v17.038H54.79v-17.038h25.375zm27.583-19.244v17.038H82.374v-17.038h25.375zm-25.375-2.208V99.86h25.375v17.037H82.374zm25.375 21.451v17.04H82.374v-17.04h25.375zm0-40.696H82.374V80.614h25.375V97.65zM27.207 82.083c0-.81.657-1.466 1.466-1.47h23.91v17.038H27.207V82.083zm0 17.776h25.376v17.037H27.207V99.86zm0 19.245h25.376v17.038H27.207v-17.038zm0 34.812v-15.569h25.376v17.04h-23.91a1.472 1.472 0 0 1-1.466-1.47zm108.124 0c0 .809-.655 1.466-1.465 1.47h-23.91v-17.039h25.375v15.57zm0-17.774h-25.375v-17.038h25.375v17.038zm0-19.246h-25.375V99.86h25.375v17.037zm0-19.245h-25.375V80.614h23.91c.809.003 1.465.66 1.465 1.468v15.57z"/>
            <path fill="#1DB6AF" d="M47.274 84.401H32.518c-.61 0-1.104.495-1.104 1.104v7.256c0 .609.495 1.104 1.104 1.104h14.756c.61 0 1.104-.495 1.104-1.104v-7.256a1.105 1.105 0 0 0-1.104-1.104zM47.274 103.646H32.518c-.61 0-1.104.493-1.104 1.103v7.256c0 .609.495 1.102 1.104 1.102h14.756c.61 0 1.104-.493 1.104-1.102v-7.256a1.104 1.104 0 0 0-1.104-1.103zM47.274 122.891H32.518c-.61 0-1.104.494-1.104 1.104v7.256c0 .609.495 1.104 1.104 1.104h14.756c.61 0 1.104-.495 1.104-1.104v-7.256a1.105 1.105 0 0 0-1.104-1.104zM47.274 142.136H32.518c-.61 0-1.104.494-1.104 1.104v7.256c0 .609.495 1.104 1.104 1.104h14.756c.61 0 1.104-.495 1.104-1.104v-7.256a1.104 1.104 0 0 0-1.104-1.104zM74.856 84.401H60.1c-.61 0-1.104.495-1.104 1.104v7.256c0 .609.495 1.104 1.104 1.104h14.756c.61 0 1.105-.495 1.105-1.104v-7.256c0-.61-.496-1.104-1.105-1.104zM87.683 93.864h14.757c.609 0 1.104-.495 1.104-1.104v-7.256c0-.609-.495-1.104-1.104-1.104H87.683c-.609 0-1.104.495-1.104 1.104v7.256c0 .609.495 1.104 1.104 1.104zM130.022 84.401h-14.755c-.61 0-1.104.495-1.104 1.104v7.256c0 .609.495 1.104 1.104 1.104h14.756c.61 0 1.105-.495 1.105-1.104v-7.256a1.105 1.105 0 0 0-1.106-1.104z"/>
        </g>
        <rect width="2" height="9" x="127" y="20" fill="#1DB6AF" rx="1"/>
        <rect width="2" height="9" x="127" y="34" fill="#1DB6AF" rx="1"/>
        <path fill="#1DB6AF" d="M129 52h4a1 1 0 1 1 0 2h-5a1 1 0 0 1-1-1v-4a1 1 0 1 1 2 0v3z"/>
        <rect width="9" height="2" x="153" y="52" fill="#1DB6AF" rx="1"/>
        <rect width="9" height="2" x="139" y="52" fill="#1DB6AF" rx="1"/>
    </g>
</svg>
